<?xml version="1.0" encoding="UTF-8" standalone="no"?>
<!-- Created with Inkscape (http://www.inkscape.org/) -->

<svg
   width="120mm"
   height="120mm"
   viewBox="-60 -60 120 120"
   sodipodi:docname="ooze_toilet.svg"
   version="1.1"
   id="svg3"
   inkscape:version="1.3 (0e150ed6c4, 2023-07-21)"
   xmlns:inkscape="http://www.inkscape.org/namespaces/inkscape"
   xmlns:sodipodi="http://sodipodi.sourceforge.net/DTD/sodipodi-0.dtd"
   xmlns:xlink="http://www.w3.org/1999/xlink"
   xmlns="http://www.w3.org/2000/svg"
   xmlns:svg="http://www.w3.org/2000/svg"
   xmlns:rdf="http://www.w3.org/1999/02/22-rdf-syntax-ns#"
   xmlns:cc="http://creativecommons.org/ns#"
   xmlns:dc="http://purl.org/dc/elements/1.1/">
  <defs
     id="defs3">
    <rect
       x="387.49452"
       y="458.9123"
       width="96.873629"
       height="21.213203"
       id="rect13" />
    <linearGradient
       id="linearGradient11"
       inkscape:collect="always">
      <stop
         style="stop-color:#054300;stop-opacity:1"
         offset="0"
         id="stop12" />
      <stop
         style="stop-color:#0fc302;stop-opacity:0.58823532;"
         offset="1"
         id="stop13" />
    </linearGradient>
    <linearGradient
       id="linearGradient10"
       inkscape:collect="always">
      <stop
         style="stop-color:#348e00;stop-opacity:0.99215686;"
         offset="0"
         id="stop10" />
      <stop
         style="stop-color:#11c102;stop-opacity:0.60000002;"
         offset="1"
         id="stop11" />
    </linearGradient>
    <radialGradient
       inkscape:collect="always"
       xlink:href="#linearGradient3"
       id="radialGradient4"
       cx="1.0706795"
       cy="21.429289"
       fx="1.0706795"
       fy="21.429289"
       r="56.990559"
       gradientTransform="matrix(1,0,0,0.94765068,0,0.15715999)"
       gradientUnits="userSpaceOnUse" />
    <linearGradient
       id="linearGradient3"
       inkscape:collect="always">
      <stop
         style="stop-color:#358d00;stop-opacity:1;"
         offset="0.13184583"
         id="stop3" />
      <stop
         style="stop-color:#0dc702;stop-opacity:0.56304985;"
         offset="1"
         id="stop4" />
    </linearGradient>
    <radialGradient
       inkscape:collect="always"
       xlink:href="#linearGradient6"
       id="radialGradient7"
       cx="2.941108"
       cy="22.55442"
       fx="2.941108"
       fy="22.55442"
       r="48.464085"
       gradientTransform="matrix(1,0,0,0.74105152,0,2.2347126)"
       gradientUnits="userSpaceOnUse" />
    <linearGradient
       id="linearGradient6"
       inkscape:collect="always">
      <stop
         style="stop-color:#023100;stop-opacity:0.64516127;"
         offset="0"
         id="stop6" />
      <stop
         style="stop-color:#054200;stop-opacity:0.26979473;"
         offset="1"
         id="stop7" />
    </linearGradient>
    <radialGradient
       inkscape:collect="always"
       xlink:href="#linearGradient10"
       id="radialGradient11"
       cx="-0.84667414"
       cy="2.9151435"
       fx="-0.84667414"
       fy="2.9151435"
       r="46.87958"
       gradientTransform="matrix(1,0,0,0.82251311,0,-3.4754124)"
       gradientUnits="userSpaceOnUse" />
    <radialGradient
       inkscape:collect="always"
       xlink:href="#linearGradient11"
       id="radialGradient13"
       cx="-0.31870472"
       cy="4.0207505"
       fx="-0.31870472"
       fy="4.0207505"
       r="38.476037"
       gradientTransform="matrix(1,0,0,0.5259076,0,-8.8877577)"
       gradientUnits="userSpaceOnUse" />
  </defs>
  <sodipodi:namedview
     pagecolor="#ffffff"
     bordercolor="#666666"
     borderopacity="1.0"
     inkscape:pageopacity="0.0"
     inkscape:pageshadow="2"
     inkscape:zoom="1.4142136"
     inkscape:cx="178.54446"
     inkscape:cy="223.7993"
     inkscape:document-units="mm"
     inkscape:current-layer="layer4"
     showgrid="false"
     units="mm"
     showguides="true"
     inkscape:guide-bbox="true"
     inkscape:snap-global="true"
     inkscape:snap-bbox="true"
     inkscape:snap-bbox-midpoints="true"
     inkscape:window-width="1920"
     inkscape:window-height="1057"
     inkscape:window-x="-8"
     inkscape:window-y="-8"
     inkscape:window-maximized="1"
     inkscape:bbox-paths="true"
     inkscape:bbox-nodes="true"
     inkscape:snap-bbox-edge-midpoints="true"
     inkscape:snap-grids="true"
     id="namedview1"
     inkscape:showpageshadow="2"
     inkscape:pagecheckerboard="0"
     inkscape:deskcolor="#d1d1d1">
    <sodipodi:guide
       orientation="1,0"
       position="226.771653543,226.771653543"
       id="guide2827"
       inkscape:locked="false" />
    <sodipodi:guide
       orientation="0,1"
       position="226.771653543,226.771653543"
       id="guide2829"
       inkscape:locked="false" />
    <inkscape:grid
       type="xygrid"
       id="grid3072"
       empspacing="10"
       visible="false"
       enabled="true"
       snapvisiblegridlinesonly="true"
       units="mm"
       dotted="false"
       spacingx="0.1mm"
       spacingy="0.1mm"
       originx="0"
       originy="0" />
  </sodipodi:namedview>
  <metadata
     id="metadata2822">
    <rdf:RDF>
      <cc:Work
         rdf:about="">
        <dc:format>image/svg+xml</dc:format>
        <dc:type
           rdf:resource="http://purl.org/dc/dcmitype/StillImage" />
      </cc:Work>
    </rdf:RDF>
  </metadata>
  <g
     inkscape:label="Layer 1"
     inkscape:groupmode="layer"
     id="Template"
     style="display:none;fill:none;stroke:#000000;stroke-width:0.05"
     sodipodi:insensitive="true">
    <circle
       cx="0"
       cy="0"
       r="60"
       id="circle1" />
    <circle
       cx="0"
       cy="0"
       r="19"
       id="circle2" />
    <circle
       cx="0"
       cy="0"
       r="7.5"
       id="circle3" />
  </g>
  <g
     inkscape:groupmode="layer"
     id="layer5"
     inkscape:label="Layer 2"
     sodipodi:insensitive="true"
     transform="translate(-0.65656447,-3.1937573)"
     style="display:none">
    <path
       style="fill:url(#radialGradient4);stroke:#086b00;stroke-width:3.665;stroke-linecap:round;stroke-dasharray:none;stroke-opacity:1"
       d="M -1.7916674,56.945832 C 51.389582,56.152082 58.268749,33.133332 57.474999,22.285416 56.681249,11.437499 52.447915,-51.26875 4.8229159,-51.004167 -42.802084,-50.739583 -60.264583,-7.3479173 -55.766667,26.254166 -51.26875,59.856248 -1.7916674,56.945832 -1.7916674,56.945832 Z"
       id="path3" />
    <path
       style="fill:url(#radialGradient7);stroke:#054300;stroke-width:1.765;stroke-linecap:butt;stroke-linejoin:miter;stroke-dasharray:none;stroke-opacity:1"
       d="m -36.98125,-8.4062506 c 0,0 -10.847917,30.1624996 -7.9375,37.8354166 2.910416,7.672916 12.170833,11.906249 12.170833,11.906249 0,0 8.73125,-8.731249 7.14375,-22.489583 1.322917,20.108333 11.1125,24.60625 11.1125,24.60625 0,0 12.6999996,-16.139583 11.6416663,-32.279166 1.85208333,23.547916 14.8166667,28.839583 19.8437497,28.310416 5.027083,-0.529167 4.7625,-11.641667 7.672917,-32.5437495 2.645833,26.9874995 21.431249,21.1666665 21.431249,21.1666665 0,0 10.054167,-17.197917 -3.175,-32.5437497 C 29.693749,-19.783334 28.899999,-25.339584 28.899999,-25.339584 c 0,0 -11.90625,12.7 1.322917,23.8124999 C 16.029558,-10.295502 2.1787038,-26.046473 14.760311,11.724556 -0.733333,-4.4375003 -8.4728163,-32.196408 -8.670833,-19.254167 c -0.086729,5.668532 -3.500525,23.1572974 -6.35,18.25625033 C -32.15714,-30.472064 -34.335417,16.99375 -34.335417,16.99375 Z"
       id="path6"
       sodipodi:nodetypes="csccccsccscccsscc" />
  </g>
  <g
     inkscape:groupmode="layer"
     id="layer3"
     inkscape:label="Layer 3">
    <path
       style="display:inline;fill:#ffffff;fill-opacity:1;stroke:#767676;stroke-width:1.565;stroke-linecap:round;stroke-linejoin:round;stroke-dasharray:none;stroke-opacity:1"
       d="m -53.264808,-45.781261 c 0,0 -7.670635,38.3531776 1.309621,46.02381078 C -42.974931,7.9131856 46.079275,12.777492 52.814466,2.8617925 59.549657,-7.053907 53.936998,-45.219995 53.936998,-45.219995"
       id="path5" />
    <path
       style="display:inline;fill:#ffffff;fill-opacity:1;stroke:#767676;stroke-width:1.565;stroke-linecap:round;stroke-linejoin:round;stroke-dasharray:none;stroke-opacity:1"
       d="M -56.445315,-45.781261 H 57.304593 c 0,0 4.49013,-9.354434 -2.245063,-10.851143 -6.735191,-1.496709 -104.021298,-1.870887 -110.569402,0 -6.548103,1.870887 -0.935443,10.851143 -0.935443,10.851143 z"
       id="path4" />
    <path
       style="display:inline;fill:#ffffff;fill-opacity:1;stroke:#767676;stroke-width:1.565;stroke-linecap:round;stroke-linejoin:round;stroke-dasharray:none;stroke-opacity:1"
       d="m -16.782517,39.344082 c 0.374176,11.973673 -15.341272,15.154182 -8.418991,17.212156 6.92228,2.057977 39.101532,3.928864 43.965835,0.561269 4.864307,-3.367598 -8.418988,-7.670636 -8.044812,-17.02507"
       id="path9" />
    <path
       style="display:inline;fill:url(#radialGradient11);stroke:#086b00;stroke-width:2.865;stroke-linecap:round;stroke-linejoin:round;stroke-dasharray:none;stroke-opacity:1"
       d="m -44.845818,2.487616 c -1.496709,-37.791912 9.167345,-55.565335 37.6048214,-56.500779 C 21.196481,-54.948606 44.395475,-49.523035 45.892186,-2.1896008 47.388894,45.14383 -44.845818,2.487616 -44.845818,2.487616 Z"
       id="path10" />
    <path
       style="display:inline;fill:#ffffff;fill-opacity:1;stroke:#767676;stroke-width:1.565;stroke-linecap:round;stroke-linejoin:round;stroke-dasharray:none;stroke-opacity:1"
       d="m -51.955187,13.338758 c 3.367596,27.876211 31.243806,31.805072 54.6298899,31.805072 23.3860841,0 50.5139401,-12.534939 48.4559661,-30.121274"
       id="path8" />
    <path
       style="fill:url(#radialGradient13);fill-opacity:0.65098;stroke:#064900;stroke-width:1.765;stroke-linecap:round;stroke-linejoin:round;stroke-dasharray:none;stroke-opacity:0.97254902"
       d="m -37.736449,-3.3121352 c 3.367596,-20.0184858 9.541522,-23.7602608 9.541522,-23.7602608 0,0 6.92228,0 5.238482,12.534943 9.167344,-18.521778 13.4703848,-21.328109 13.4703848,-21.328109 0,0 4.6772168,6.173926 4.6772168,20.579753 0.3741764,-15.341272 6.548104,-22.263551 6.548104,-22.263551 0,0 6.173925,15.52836 5.2384827,32.1792507 1.6837978,-25.8182367 6.5481037,-30.6825417 6.5481037,-30.6825417 0,0 7.857723,5.986839 7.109368,16.089625 -0.748353,10.1027894 8.231901,-6.735191 8.231901,-6.735191 7.10937,7.670636 7.483547,26.75367991 7.483547,26.75367991 z"
       id="path11" />
    <path
       style="display:inline;fill:#ffffff;fill-opacity:1;stroke:#767676;stroke-width:1.565;stroke-linecap:round;stroke-linejoin:round;stroke-dasharray:none;stroke-opacity:1"
       d="m -55.884049,-2.3766902 c -2.619242,3.36759541 -4.30304,13.0962052 -1.49671,15.1541822 2.80633,2.057974 107.575983,5.986835 112.814465,0.561266 5.238483,-5.4255724 5.051396,-14.7800059 1.496711,-16.4638037 -3.554685,-1.6837977 -108.324338,-3.7417718 -112.814466,0.7483555 z"
       id="path7" />
  </g>
  <g
     inkscape:groupmode="layer"
     id="layer4"
     inkscape:label="Layer 4">
    <text
       xml:space="preserve"
       transform="matrix(0.26458333,0,0,0.26458333,-60,-60)"
       id="text13"
       style="font-size:10.6667px;font-family:'MS Gothic';-inkscape-font-specification:'MS Gothic, Normal';white-space:pre;shape-inside:url(#rect13);fill:#16bb02;fill-opacity:0.65098;stroke:none;stroke-width:6.67087;stroke-linecap:round;stroke-linejoin:round;stroke-dasharray:none;stroke-opacity:0.972549"><tspan
         x="387.49414"
         y="469.41214"
         id="tspan1">10/28/2023</tspan></text>
  </g>
</svg>
