<?xml version="1.0" encoding="UTF-8" standalone="no"?>
<!-- Created with Inkscape (http://www.inkscape.org/) -->

<svg
   width="120mm"
   height="120mm"
   viewBox="-60 -60 120 120"
   sodipodi:docname="panther.svg"
   version="1.1"
   id="svg3"
   inkscape:version="1.3 (0e150ed6c4, 2023-07-21)"
   xmlns:inkscape="http://www.inkscape.org/namespaces/inkscape"
   xmlns:sodipodi="http://sodipodi.sourceforge.net/DTD/sodipodi-0.dtd"
   xmlns:xlink="http://www.w3.org/1999/xlink"
   xmlns="http://www.w3.org/2000/svg"
   xmlns:svg="http://www.w3.org/2000/svg"
   xmlns:rdf="http://www.w3.org/1999/02/22-rdf-syntax-ns#"
   xmlns:cc="http://creativecommons.org/ns#"
   xmlns:dc="http://purl.org/dc/elements/1.1/">
  <defs
     id="defs3">
    <rect
       x="404"
       y="458"
       width="71"
       height="27"
       id="rect23" />
    <linearGradient
       id="linearGradient22"
       inkscape:collect="always">
      <stop
         style="stop-color:#000000;stop-opacity:1;"
         offset="0"
         id="stop22" />
      <stop
         style="stop-color:#ffb200;stop-opacity:1;"
         offset="0.47261664"
         id="stop23" />
    </linearGradient>
    <linearGradient
       id="linearGradient18"
       inkscape:collect="always">
      <stop
         style="stop-color:#fcf95e;stop-opacity:1;"
         offset="0"
         id="stop18" />
      <stop
         style="stop-color:#c0a30d;stop-opacity:1;"
         offset="1"
         id="stop19" />
    </linearGradient>
    <linearGradient
       id="linearGradient16"
       inkscape:collect="always">
      <stop
         style="stop-color:#bea00a;stop-opacity:1;"
         offset="0"
         id="stop16" />
      <stop
         style="stop-color:#faf65c;stop-opacity:1;"
         offset="1"
         id="stop17" />
    </linearGradient>
    <linearGradient
       id="linearGradient14"
       inkscape:collect="always">
      <stop
         style="stop-color:#fcf95e;stop-opacity:1;"
         offset="0"
         id="stop14" />
      <stop
         style="stop-color:#bea00b;stop-opacity:1;"
         offset="1"
         id="stop15" />
    </linearGradient>
    <linearGradient
       id="linearGradient12"
       inkscape:collect="always">
      <stop
         style="stop-color:#c0a30d;stop-opacity:1;"
         offset="0"
         id="stop12" />
      <stop
         style="stop-color:#fbf85e;stop-opacity:1;"
         offset="1"
         id="stop13" />
    </linearGradient>
    <linearGradient
       id="linearGradient10"
       inkscape:collect="always">
      <stop
         style="stop-color:#bc9d08;stop-opacity:1;"
         offset="0"
         id="stop10" />
      <stop
         style="stop-color:#e2d43b;stop-opacity:1;"
         offset="1"
         id="stop11" />
    </linearGradient>
    <linearGradient
       id="linearGradient6"
       inkscape:collect="always">
      <stop
         style="stop-color:#bc9d08;stop-opacity:1;"
         offset="0"
         id="stop7" />
      <stop
         style="stop-color:#fffe63;stop-opacity:1;"
         offset="1"
         id="stop8" />
    </linearGradient>
    <radialGradient
       inkscape:collect="always"
       xlink:href="#linearGradient6"
       id="radialGradient8"
       cx="0.43931615"
       cy="-20.562664"
       fx="0.43931615"
       fy="-20.562664"
       r="12.995338"
       gradientTransform="matrix(0.98553546,0.01165373,-0.05842749,4.9411111,-1.3273621,83.937722)"
       gradientUnits="userSpaceOnUse" />
    <radialGradient
       inkscape:collect="always"
       xlink:href="#linearGradient10"
       id="radialGradient11"
       cx="1.4037185"
       cy="43.781422"
       fx="1.4037185"
       fy="43.781422"
       r="5.914155"
       gradientTransform="matrix(0.99428983,-0.10671336,0.24605514,2.2925913,-10.764628,-43.394508)"
       gradientUnits="userSpaceOnUse" />
    <linearGradient
       inkscape:collect="always"
       xlink:href="#linearGradient12"
       id="linearGradient13"
       x1="-23.752083"
       y1="-39.01759"
       x2="-10.329618"
       y2="-39.01759"
       gradientUnits="userSpaceOnUse"
       gradientTransform="translate(0,3.7041667)" />
    <linearGradient
       inkscape:collect="always"
       xlink:href="#linearGradient14"
       id="linearGradient15"
       x1="10.450354"
       y1="-42.037922"
       x2="23.872819"
       y2="-42.037922"
       gradientUnits="userSpaceOnUse"
       gradientTransform="translate(-0.396875,2.6458333)" />
    <linearGradient
       inkscape:collect="always"
       xlink:href="#linearGradient16"
       id="linearGradient17"
       x1="-33.409376"
       y1="11.145021"
       x2="-7.4716955"
       y2="11.145021"
       gradientUnits="userSpaceOnUse"
       gradientTransform="translate(0.26458333)" />
    <linearGradient
       inkscape:collect="always"
       xlink:href="#linearGradient18"
       id="linearGradient19"
       x1="9.6814978"
       y1="11.023215"
       x2="35.619178"
       y2="11.023215"
       gradientUnits="userSpaceOnUse"
       gradientTransform="translate(-0.396875,2.2489583)" />
    <radialGradient
       inkscape:collect="always"
       xlink:href="#linearGradient22"
       id="radialGradient23"
       cx="-2.7652108"
       cy="-50.050999"
       fx="-2.7652108"
       fy="-50.050999"
       r="1.19069"
       gradientTransform="matrix(1,0,0,0.86623212,5.7997487,-6.0871776)"
       gradientUnits="userSpaceOnUse" />
    <radialGradient
       inkscape:collect="always"
       xlink:href="#linearGradient22"
       id="radialGradient23-8"
       cx="-2.7652109"
       cy="-50.050999"
       fx="-2.7652109"
       fy="-50.050999"
       r="1.19069"
       gradientTransform="matrix(-0.98295639,0.18383887,0.15924713,0.8514684,3.55548,-6.3477335)"
       gradientUnits="userSpaceOnUse" />
  </defs>
  <sodipodi:namedview
     pagecolor="#ffffff"
     bordercolor="#666666"
     borderopacity="1.0"
     inkscape:pageopacity="0.0"
     inkscape:pageshadow="2"
     inkscape:zoom="1"
     inkscape:cx="65.5"
     inkscape:cy="80.5"
     inkscape:document-units="mm"
     inkscape:current-layer="layer8"
     showgrid="false"
     units="mm"
     showguides="true"
     inkscape:guide-bbox="true"
     inkscape:snap-global="true"
     inkscape:snap-bbox="true"
     inkscape:snap-bbox-midpoints="true"
     inkscape:window-width="1920"
     inkscape:window-height="1057"
     inkscape:window-x="-8"
     inkscape:window-y="-8"
     inkscape:window-maximized="1"
     inkscape:bbox-paths="true"
     inkscape:bbox-nodes="true"
     inkscape:snap-bbox-edge-midpoints="true"
     inkscape:snap-grids="true"
     id="namedview1"
     inkscape:showpageshadow="2"
     inkscape:pagecheckerboard="0"
     inkscape:deskcolor="#d1d1d1">
    <sodipodi:guide
       orientation="1,0"
       position="226.771653543,226.771653543"
       id="guide2827"
       inkscape:locked="false" />
    <sodipodi:guide
       orientation="0,1"
       position="226.771653543,226.771653543"
       id="guide2829"
       inkscape:locked="false" />
    <inkscape:grid
       type="xygrid"
       id="grid3072"
       empspacing="10"
       visible="false"
       enabled="true"
       snapvisiblegridlinesonly="true"
       units="mm"
       dotted="false"
       spacingx="0.1mm"
       spacingy="0.1mm"
       originx="0"
       originy="0" />
  </sodipodi:namedview>
  <metadata
     id="metadata2822">
    <rdf:RDF>
      <cc:Work
         rdf:about="">
        <dc:format>image/svg+xml</dc:format>
        <dc:type
           rdf:resource="http://purl.org/dc/dcmitype/StillImage" />
      </cc:Work>
    </rdf:RDF>
  </metadata>
  <g
     inkscape:label="Layer 1"
     inkscape:groupmode="layer"
     id="Template"
     style="display:none;fill:none;stroke:#000000;stroke-width:0.05"
     sodipodi:insensitive="true">
    <circle
       cx="0"
       cy="0"
       r="60"
       id="circle1" />
    <circle
       cx="0"
       cy="0"
       r="19"
       id="circle2" />
    <circle
       cx="0"
       cy="0"
       r="7.5"
       id="circle3" />
  </g>
  <g
     inkscape:groupmode="layer"
     id="layer7"
     inkscape:label="Layer 2"
     sodipodi:insensitive="true">
    <path
       style="fill:#ff524c;fill-opacity:1;stroke:#9d0301;stroke-width:0.365;stroke-dasharray:none;stroke-opacity:1"
       d="m -0.07187576,-54.972917 c -1.45520834,-3.836458 2.38124996,-7.540625 2.38124996,0.132292"
       id="path20" />
    <path
       style="fill:url(#radialGradient11);fill-opacity:1;stroke:#6e5900;stroke-width:0.964999;stroke-dasharray:none;stroke-opacity:1"
       d="m -2.6516479,16.881118 c 6.3067053,12.456025 -6.8344123,18.862884 -3.8409932,25.223899 2.993419,6.361014 7.48354631,11.412408 6.36101449,14.405827 -1.12253179,2.993419 2.61924001,3.367595 3.92886141,0.187089 1.3096213,-3.180508 -8.7931677,-11.786587 -7.6706359,-16.463803 1.1225345,-4.677217 6.548104,-10.102787 6.548104,-14.592917 0,-4.490127 0.7947737,-9.395438 0.079441,-8.989657 -2.50127,0.174271 -3.20615435,0.245402 -5.4057918,0.229562 z"
       id="path8"
       sodipodi:nodetypes="cssssscc" />
    <path
       style="fill:url(#linearGradient19);stroke:#6e5900;stroke-width:0.964999;stroke-dasharray:none;stroke-opacity:1"
       d="M 9.5854157,16.826638 C 19.374999,9.0214304 19.374999,8.2276804 21.623958,11.005805 c 2.248958,2.778125 4.635617,5.120362 3.571875,7.011458 -1.190625,2.116667 1.190625,5.291667 6.482292,3.175 5.291666,-2.116667 2.645832,-5.55625 0.132291,-5.953125 C 27.707206,14.591263 23.740624,4.5235134 21.094791,4.6558054 18.448958,4.7880964 10.908333,8.4922634 10.908333,8.4922634"
       id="path12"
       sodipodi:nodetypes="csssssc" />
    <path
       style="fill:url(#linearGradient13);stroke:#6e5900;stroke-width:0.964999;stroke-dasharray:none;stroke-opacity:1"
       d="m -10.523013,-33.29946 c -6.35,2.778125 -5.159375,2.38125 -6.879167,-0.132291 -1.719791,-2.513542 -2.778125,-5.55625 -0.264583,-6.482292 2.513542,-0.926041 3.836458,-3.307292 0.132292,-4.233334 -3.704167,-0.926042 -6.746875,0.529167 -5.423959,2.645834 1.322917,2.116667 -0.264583,13.626042 3.307292,14.948958 3.571875,1.322917 8.598958,-1.455208 8.598958,-1.455208"
       id="path11-0" />
    <path
       style="fill:url(#linearGradient17);stroke:#6e5900;stroke-width:0.964999;stroke-dasharray:none;stroke-opacity:1"
       d="M -7.5079051,14.699487 C -17.297489,6.8942788 -17.297489,6.1005288 -19.546448,8.8786538 c -2.248958,2.7781242 -4.635617,5.1203622 -3.571875,7.0114582 1.190625,2.116667 -1.190625,5.291666 -6.482292,3.175 -5.291666,-2.116667 -2.645832,-5.55625 -0.132291,-5.953125 4.10321,-0.647876 8.069792,-10.7156252 10.715625,-10.5833332 2.645833,0.132291 10.1864586,3.836458 10.1864586,3.836458"
       id="path12-0"
       sodipodi:nodetypes="csssssc" />
    <path
       style="fill:url(#linearGradient15);stroke:#6e5900;stroke-width:0.964999;stroke-dasharray:none;stroke-opacity:1"
       d="m 10.246874,-37.378126 c 6.35,2.778125 5.159375,2.38125 6.879167,-0.132291 1.719791,-2.513542 2.778125,-5.55625 0.264583,-6.482292 -2.513542,-0.926041 -3.836458,-3.307292 -0.132292,-4.233334 3.704167,-0.926042 6.746875,0.529167 5.423959,2.645834 -1.322917,2.116667 0.264583,13.626042 -3.307292,14.948958 -3.571875,1.322917 -8.598958,-1.455208 -8.598958,-1.455208"
       id="path11" />
    <path
       style="fill:url(#radialGradient8);fill-opacity:1;stroke:#6e5900;stroke-width:0.965;stroke-dasharray:none;stroke-opacity:1"
       d="m -0.07682876,-56.099343 c 4.02240526,0.654811 2.05797546,0.374178 5.42556956,2.432153 2.2177808,1.355311 2.9934191,4.677216 1.8708872,6.92228 -1.1225318,2.245064 1.3096214,4.864306 2.806329,8.41899 1.496711,3.554685 1.122532,9.167346 0.374179,11.22532 -0.7483548,2.057977 -2.245063,3.741774 -3.180508,9.541523 C 6.2841857,-11.759328 5.5358303,2.0852325 7.4067176,3.9561197 9.2776048,5.827007 13.767732,12.188022 11.335579,16.491059 8.9034258,20.7941 -7.3732883,22.103721 -10.740884,17.613591 c -3.367595,-4.490127 2.2450639,-7.296457 2.4321534,-13.4703844 0.1870896,-6.173925 1.6837978,-24.6957026 -2.6192434,-30.4954516 -4.303037,-5.799749 3.7417753,-11.973675 5.0513966,-15.341271 1.3096187,-3.367596 -1.8708873,-4.677216 -0.7483554,-7.857724 1.1225318,-3.180507 4.6772171,-4.209495 6.54810404,-6.548103 z"
       id="path3"
       sodipodi:nodetypes="cssssssssssssc" />
    <path
       style="fill:#ebe148;fill-opacity:1;stroke:#6e5900;stroke-width:0.964999;stroke-dasharray:none;stroke-opacity:1"
       d="m 4.2937492,-45.844792 c 5.8208328,3.307292 5.9531248,-1.852083 2.6458333,-2.910416"
       id="path19" />
    <path
       style="fill:#e8dd44;fill-opacity:1;stroke:#6e5900;stroke-width:0.964999;stroke-dasharray:none;stroke-opacity:1"
       d="m -3.6182715,-45.385248 c -5.8208338,3.307292 -5.9531258,-1.852083 -2.6458338,-2.910416"
       id="path19-2" />
    <path
       style="fill:#3c2600;fill-opacity:1;stroke:#140e00;stroke-width:0.865;stroke-linecap:round;stroke-linejoin:round;stroke-dasharray:none;stroke-opacity:1"
       d="m 2.3568027,-54.474998 c -0.5128581,0.196551 -2.36480525,0.14054 -2.62863076,0.105761 -0.80376374,-0.105957 -1.49597484,-2.066839 0.98771438,-2.181289 2.78773748,-0.128462 2.42435838,1.775279 1.64091648,2.075531 z"
       id="path21"
       sodipodi:nodetypes="ssss" />
    <path
       style="fill:url(#radialGradient23);stroke:#000000;stroke-width:0.165;stroke-linecap:round;stroke-linejoin:round;stroke-dasharray:none;stroke-opacity:1"
       d="m 3.9375512,-48.494046 c -1.8708872,0 -2.0112037,-0.888671 -2.0112037,-0.888671 0,0 0.6080389,-1.683798 1.6370273,-0.701583 1.0289885,0.982216 0.3741764,1.590254 0.3741764,1.590254 z"
       id="path22" />
    <path
       style="fill:url(#radialGradient23-8);fill-opacity:1;stroke:#000000;stroke-width:0.165;stroke-linecap:round;stroke-linejoin:round;stroke-dasharray:none;stroke-opacity:1"
       d="m -2.4100921,-48.374181 c 1.83900053,-0.343942 1.81355323,-1.243262 1.81355323,-1.243262 0,0 -0.90722323,-1.543319 -1.73810463,-0.388676 -0.8308813,1.154643 -0.075449,1.631938 -0.075449,1.631938 z"
       id="path22-6" />
    <path
       style="fill:none;fill-opacity:1;stroke:#6e5900;stroke-width:0.665;stroke-linecap:round;stroke-linejoin:round;stroke-dasharray:none;stroke-opacity:1"
       d="m -0.31871528,-49.102086 c -2.29183672,1.403166 -3.18050862,1.216077 -3.18050862,1.216077"
       id="path23" />
    <path
       style="fill:none;fill-opacity:1;stroke:#6e5900;stroke-width:0.665;stroke-linecap:round;stroke-linejoin:round;stroke-dasharray:none;stroke-opacity:1"
       d="m 1.5154485,-49.069494 c 2.2918367,1.403166 3.1805086,1.216077 3.1805086,1.216077"
       id="path23-2" />
  </g>
  <g
     inkscape:groupmode="layer"
     id="layer8"
     inkscape:label="Layer 3">
    <text
       xml:space="preserve"
       transform="matrix(0.26458333,0,0,0.26458333,-60,-60)"
       id="text23"
       style="font-size:10.6667px;font-family:'MS Gothic';-inkscape-font-specification:'MS Gothic, Normal';white-space:pre;shape-inside:url(#rect23);fill:#000000;fill-opacity:1;stroke:none;stroke-width:2.51339;stroke-linecap:round;stroke-linejoin:round;stroke-dasharray:none;stroke-opacity:1"><tspan
         x="404"
         y="468.50003"
         id="tspan1">10/27/2023</tspan></text>
  </g>
</svg>
